<?xml version="1.0" encoding="UTF-8" standalone="no"?>
<svg
   xmlns:dc="http://purl.org/dc/elements/1.1/"
   xmlns:cc="http://creativecommons.org/ns#"
   xmlns:rdf="http://www.w3.org/1999/02/22-rdf-syntax-ns#"
   xmlns:svg="http://www.w3.org/2000/svg"
   xmlns="http://www.w3.org/2000/svg"
   xmlns:sodipodi="http://sodipodi.sourceforge.net/DTD/sodipodi-0.dtd"
   xmlns:inkscape="http://www.inkscape.org/namespaces/inkscape"
   width="512mm"
   height="512mm"
   viewBox="0 0 512 512"
   version="1.1"
   id="svg8"
   inkscape:export-filename="/home/ronald/Desktop/psyconymous-logo.png"
   inkscape:export-xdpi="27.555912"
   inkscape:export-ydpi="27.555912"
   inkscape:version="1.0.2 (e86c870879, 2021-01-15)"
   sodipodi:docname="logo.svg">
  <defs
     id="defs2">
    <rect
       x="20.03786"
       y="420.16903"
       width="476.42916"
       height="78.796085"
       id="rect1977" />
    <rect
       x="34.564335"
       y="432.6929"
       width="446.61393"
       height="60.299245"
       id="rect1970" />
    <filter
       inkscape:collect="always"
       style="color-interpolation-filters:sRGB"
       id="filter1746"
       x="-2.8207525e-05"
       width="1.0000564"
       y="-3.2035743e-05"
       height="1.0000641">
      <feGaussianBlur
         inkscape:collect="always"
         stdDeviation="0.0046592923"
         id="feGaussianBlur1748" />
    </filter>
    <filter
       inkscape:collect="always"
       style="color-interpolation-filters:sRGB"
       id="filter1964"
       x="-1.1208614e-06"
       width="1.0000022"
       y="-1.2911628e-06"
       height="1.0000026">
      <feGaussianBlur
         inkscape:collect="always"
         stdDeviation="0.00022040863"
         id="feGaussianBlur1966" />
    </filter>
  </defs>
  <sodipodi:namedview
     id="base"
     pagecolor="#ffffff"
     bordercolor="#666666"
     borderopacity="1.0"
     inkscape:pageopacity="0.0"
     inkscape:pageshadow="2"
     inkscape:zoom="0.22627417"
     inkscape:cx="950.65135"
     inkscape:cy="1051.2564"
     inkscape:document-units="mm"
     inkscape:current-layer="layer3"
     inkscape:document-rotation="0"
     showgrid="false"
     inkscape:window-width="1360"
     inkscape:window-height="738"
     inkscape:window-x="0"
     inkscape:window-y="0"
     inkscape:window-maximized="0" />
  <metadata
     id="metadata5">
    <rdf:RDF>
      <cc:Work
         rdf:about="">
        <dc:format>image/svg+xml</dc:format>
        <dc:type
           rdf:resource="http://purl.org/dc/dcmitype/StillImage" />
        <dc:title></dc:title>
      </cc:Work>
    </rdf:RDF>
  </metadata>
  <g
     inkscape:label="1"
     inkscape:groupmode="layer"
     id="layer1"
     style="opacity:1;filter:url(#filter1964)">
    <g
       id="g814"
       transform="matrix(13.113122,0,0,13.113122,26.1733,-19.405084)"
       style="fill:#05396b;fill-opacity:1;stroke:#edf5e0;stroke-width:0.458548;stroke-miterlimit:4;stroke-dasharray:none;stroke-opacity:1">
      <g
         id="g756"
         style="fill:#05396b;fill-opacity:1;stroke:#edf5e0;stroke-width:0.458548;stroke-miterlimit:4;stroke-dasharray:none;stroke-opacity:1">
	<g
   id="g754"
   style="fill:#05396b;fill-opacity:1;stroke:#edf5e0;stroke-width:0.458548;stroke-miterlimit:4;stroke-dasharray:none;stroke-opacity:1">
		<path
   d="m 35.49,17.416 c 0,3.613 -1.594,6.91 -4.217,9.453 v 6.248 l -6.248,-2.39 c -2.152,0.789 -4.527,1.232 -7.03,1.232 C 8.333,31.959 0.5,25.448 0.5,17.417 0.5,9.386 8.333,2.874 17.995,2.874 c 9.662,0 17.495,6.511 17.495,14.542 z"
   id="path750"
   style="fill:#05396b;fill-opacity:1;stroke:#edf5e0;stroke-width:0.458548;stroke-miterlimit:4;stroke-dasharray:none;stroke-opacity:1" />

		<path
   d="m 31.273,33.617 c -0.061,0 -0.121,-0.011 -0.179,-0.033 L 25.02,31.261 C 22.786,32.057 20.423,32.46 17.995,32.46 8.073,32.459 0,25.711 0,17.417 0,9.123 8.073,2.374 17.995,2.374 c 9.923,0 17.995,6.748 17.995,15.042 0,2.011384 -0.48543,3.987724 -1.406198,5.817008 C 33.888155,24.615045 32.944021,25.913144 31.773,27.079 v 6.038 c 0,0.165 -0.081,0.318 -0.217,0.412 -0.083,0.057 -0.183,0.088 -0.283,0.088 z m -6.248,-3.39 c 0.061,0 0.121,0.011 0.179,0.033 l 5.569,2.13 v -5.521 c 0,-0.136 0.055,-0.265 0.152,-0.359 2.621,-2.541 4.064,-5.771 4.064,-9.094 C 34.989,9.673 27.365,3.374 17.994,3.374 8.623,3.374 1,9.673 1,17.417 1,25.161 8.624,31.46 17.995,31.46 c 2.375,0 4.683,-0.404 6.858,-1.202 0.056,-0.021 0.114,-0.031 0.172,-0.031 z"
   id="path752"
   sodipodi:nodetypes="scccsssscscssccscsssscs"
   style="fill:#05396b;fill-opacity:1;stroke:#edf5e0;stroke-width:0.458548;stroke-miterlimit:4;stroke-dasharray:none;stroke-opacity:1" />

	</g>

</g>
      <g
         id="g758"
         style="fill:#05396b;fill-opacity:1;stroke:#edf5e0;stroke-width:0.458548;stroke-miterlimit:4;stroke-dasharray:none;stroke-opacity:1">
</g>
      <g
         id="g760"
         style="fill:#05396b;fill-opacity:1;stroke:#edf5e0;stroke-width:0.458548;stroke-miterlimit:4;stroke-dasharray:none;stroke-opacity:1">
</g>
      <g
         id="g762"
         style="fill:#05396b;fill-opacity:1;stroke:#edf5e0;stroke-width:0.458548;stroke-miterlimit:4;stroke-dasharray:none;stroke-opacity:1">
</g>
      <g
         id="g764"
         style="fill:#05396b;fill-opacity:1;stroke:#edf5e0;stroke-width:0.458548;stroke-miterlimit:4;stroke-dasharray:none;stroke-opacity:1">
</g>
      <g
         id="g766"
         style="fill:#05396b;fill-opacity:1;stroke:#edf5e0;stroke-width:0.458548;stroke-miterlimit:4;stroke-dasharray:none;stroke-opacity:1">
</g>
      <g
         id="g768"
         style="fill:#05396b;fill-opacity:1;stroke:#edf5e0;stroke-width:0.458548;stroke-miterlimit:4;stroke-dasharray:none;stroke-opacity:1">
</g>
      <g
         id="g770"
         style="fill:#05396b;fill-opacity:1;stroke:#edf5e0;stroke-width:0.458548;stroke-miterlimit:4;stroke-dasharray:none;stroke-opacity:1">
</g>
      <g
         id="g772"
         style="fill:#05396b;fill-opacity:1;stroke:#edf5e0;stroke-width:0.458548;stroke-miterlimit:4;stroke-dasharray:none;stroke-opacity:1">
</g>
      <g
         id="g774"
         style="fill:#05396b;fill-opacity:1;stroke:#edf5e0;stroke-width:0.458548;stroke-miterlimit:4;stroke-dasharray:none;stroke-opacity:1">
</g>
      <g
         id="g776"
         style="fill:#05396b;fill-opacity:1;stroke:#edf5e0;stroke-width:0.458548;stroke-miterlimit:4;stroke-dasharray:none;stroke-opacity:1">
</g>
      <g
         id="g778"
         style="fill:#05396b;fill-opacity:1;stroke:#edf5e0;stroke-width:0.458548;stroke-miterlimit:4;stroke-dasharray:none;stroke-opacity:1">
</g>
      <g
         id="g780"
         style="fill:#05396b;fill-opacity:1;stroke:#edf5e0;stroke-width:0.458548;stroke-miterlimit:4;stroke-dasharray:none;stroke-opacity:1">
</g>
      <g
         id="g782"
         style="fill:#05396b;fill-opacity:1;stroke:#edf5e0;stroke-width:0.458548;stroke-miterlimit:4;stroke-dasharray:none;stroke-opacity:1">
</g>
      <g
         id="g784"
         style="fill:#05396b;fill-opacity:1;stroke:#edf5e0;stroke-width:0.458548;stroke-miterlimit:4;stroke-dasharray:none;stroke-opacity:1">
</g>
      <g
         id="g786"
         style="fill:#05396b;fill-opacity:1;stroke:#edf5e0;stroke-width:0.458548;stroke-miterlimit:4;stroke-dasharray:none;stroke-opacity:1">
</g>
    </g>
  </g>
  <g
     inkscape:groupmode="layer"
     id="layer2"
     inkscape:label="2"
     style="filter:url(#filter1746)">
    <path
       d="M 112.06808,408.49396 H 84.637275 l 19.396915,-19.55068 c 10.4586,-10.54146 16.98963,-24.2522 18.74549,-39.12574 C 95.488244,331.76564 75.531548,308.0158 64.848726,280.7791 54.173478,253.56303 52.831993,223.60297 60.969644,194.1369 70.73364,158.7805 93.634694,126.5544 125.45285,103.39395 160.02903,78.227106 203.07237,64.924091 249.9304,64.924091 c 59.02856,0 108.78323,17.093724 143.88282,49.432059 31.62045,29.13398 49.03506,68.43147 49.03506,110.6547 0,20.51342 -4.14422,40.47328 -12.31673,59.32536 -8.45733,19.5079 -20.84143,36.87801 -36.80846,51.62632 -35.14659,32.46583 -84.87017,49.62677 -143.79345,49.62677 -21.87391,0 -44.69922,-2.94325 -65.07782,-8.34418 -19.28936,19.94462 -45.42793,31.24884 -72.78374,31.24884 z M 249.9304,87.828718 c -93.95772,0 -151.610676,56.477562 -167.068671,112.450442 -14.607339,52.89448 6.925695,102.87473 57.601441,133.69832 l 5.6622,3.44409 -0.1742,6.66295 c -0.34542,13.18851 -3.46474,25.89141 -9.04817,37.3743 13.5961,-4.63666 25.93327,-13.04267 35.59424,-24.54691 l 4.80398,-5.72084 7.12413,2.14771 c 19.99231,6.02697 43.25545,9.34585 65.50506,9.34585 116.93454,0 170.19332,-71.36557 170.19332,-137.67378 0,-35.71296 -14.78913,-69.00717 -41.6435,-93.74877 C 347.64071,102.84806 303.18843,87.828718 249.9304,87.828718 Z"
       id="path1714"
       style="fill:#5cdb94;fill-opacity:1;stroke:#000000;stroke-width:6.25105;stroke-miterlimit:4;stroke-dasharray:none;stroke-opacity:1" />
  </g>
  <g
     inkscape:groupmode="layer"
     id="layer3"
     inkscape:label="glasses">
    <path
       d="m 383.40943,149.34473 -11.22978,1.19043 c -5.99056,-10.94649 -16.48298,-18.61552 -32.21354,-19.4471 -11.94971,-0.6333 -42.83632,2.23004 -42.83632,2.23004 l -113.51253,12.03305 c 0,0 -30.80048,3.67587 -42.35083,6.80033 -15.2066,4.11112 -23.85796,13.80951 -27.42038,25.76867 l -11.23077,1.19054 c -4.399106,0.46633 -7.587708,4.41112 -7.121368,8.81023 0.46633,4.3991 4.411112,7.58766 8.810218,7.12133 l 7.54858,-0.8002 c 0.5316,14.60838 6.36592,29.76118 14.61524,40.59606 20.53984,26.98387 59.34408,35.25542 93.22649,-7.87983 10.75565,-13.68933 15.53092,-24.69363 17.29356,-35.44098 0,0 0.23557,-2.50801 0.41147,-3.35637 0.72834,-3.52083 3.60052,-6.60338 7.32454,-6.99815 l 0.16528,-0.0175 c 3.63339,-0.38516 7.01643,1.94969 8.52446,5.10966 0.40944,0.86078 1.15203,3.19261 1.17177,3.24592 3.97149,10.16564 10.96893,20.11432 24.38873,31.27208 42.17276,35.07091 78.36593,18.7112 92.79215,-11.97723 5.81796,-12.37649 7.78108,-28.88855 5.61601,-42.70146 l 7.71586,-0.81793 c 4.39911,-0.46633 7.5877,-4.41108 7.12137,-8.81018 -0.46633,-4.39912 -4.41111,-7.58772 -8.81021,-7.12139 z m -132.05637,16.43553 c -2.60022,-0.61141 -5.34955,-0.86272 -8.15251,-0.56559 l -0.16529,0.0175 c -2.80296,0.29713 -5.43851,1.11927 -7.85274,2.26225 -1.48657,-4.12579 -3.54634,-7.09536 -6.3334,-10.82756 l 26.4275,-2.80148 c -1.94361,4.23368 -3.33503,7.56909 -3.92356,11.91486 z"
       id="path1946"
       style="stroke-width:1.0013" />
  </g>
  <g
     inkscape:groupmode="layer"
     id="layer4"
     inkscape:label="Brand Name">
    <text
       xml:space="preserve"
       id="text1975"
       style="font-style:normal;font-variant:normal;font-weight:normal;font-stretch:normal;font-size:52.9167px;line-height:1.25;font-family:'CaskaydiaCove Nerd Font';-inkscape-font-specification:'CaskaydiaCove Nerd Font, Normal';font-variant-ligatures:normal;font-variant-caps:normal;font-variant-numeric:normal;font-variant-east-asian:normal;white-space:pre;shape-inside:url(#rect1977);fill:#262428;fill-opacity:0.815357;stroke:#000000;stroke-width:2;stroke-miterlimit:4;stroke-dasharray:none;stroke-opacity:1;"
       transform="translate(67.357424,0.22113581)"><tspan
         x="20.037109"
         y="467.29886"><tspan
           style="font-style:normal;font-variant:normal;font-weight:normal;font-stretch:normal;font-size:52.9167px;font-family:'CaskaydiaCove Nerd Font';-inkscape-font-specification:'CaskaydiaCove Nerd Font, Normal';font-variant-ligatures:normal;font-variant-caps:normal;font-variant-numeric:normal;font-variant-east-asian:normal;fill:#262428;fill-opacity:0.815357;stroke:#000000;stroke-width:2;stroke-miterlimit:4;stroke-dasharray:none;stroke-opacity:1">Psyconymous</tspan></tspan></text>
  </g>
</svg>
